<?xml version="1.0" encoding="UTF-8"?>
<svg id="Layer_1" data-name="Layer 1" xmlns="http://www.w3.org/2000/svg" viewBox="0 0 718.26 353.99">
  <defs>
    <style>
      .cls-1 {
        fill: #faf6f0;
      }
    </style>
  </defs>
  <polygon class="cls-1" points="268.17 104.87 277.93 104.87 277.93 63.9 292.82 63.9 292.82 54.99 253.2 54.99 253.2 63.9 268.17 63.9 268.17 104.87"/>
  <polygon class="cls-1" points="308.99 83.85 332.08 83.85 332.08 104.87 341.84 104.87 341.84 54.99 332.08 54.99 332.08 74.87 308.99 74.87 308.99 54.92 299.23 54.92 299.23 104.87 308.99 104.87 308.99 83.85"/>
  <polygon class="cls-1" points="384.52 95.96 362.43 95.96 362.43 83.92 381.24 83.92 381.24 75.23 362.43 75.23 362.43 63.89 384.24 63.89 384.24 54.99 352.67 54.99 352.67 104.87 384.52 104.87 384.52 95.96"/>
  <path class="cls-1" d="M266.74,166.81c3.75,2.21,8.05,3.31,12.9,3.31,3.47,0,6.67-.62,9.62-1.85,2.94-1.24,5.52-2.97,7.73-5.2,2.2-2.23,3.9-4.8,5.09-7.69l-9.05-3.27c-.81,1.81-1.86,3.4-3.17,4.77-1.3,1.38-2.8,2.46-4.49,3.24-1.68.78-3.55,1.18-5.59,1.18-2.94,0-5.56-.72-7.84-2.17-2.28-1.45-4.06-3.45-5.35-5.98s-1.92-5.47-1.92-8.8.63-6.25,1.89-8.76c1.26-2.52,3.01-4.5,5.27-5.95,2.25-1.45,4.83-2.17,7.73-2.17,1.99,0,3.84.37,5.55,1.1,1.71.73,3.23,1.76,4.56,3.06,1.33,1.31,2.4,2.84,3.21,4.6l9.05-3.35c-1.19-2.81-2.89-5.29-5.1-7.45-2.21-2.16-4.79-3.84-7.73-5.06-2.95-1.21-6.13-1.82-9.55-1.82-4.85,0-9.14,1.1-12.86,3.31s-6.66,5.25-8.8,9.12c-2.14,3.87-3.21,8.33-3.21,13.36s1.06,9.49,3.21,13.36c2.14,3.87,5.08,6.91,8.83,9.12"/>
  <path class="cls-1" d="M322.26,149.67l7.03-18.37,7.03,18.37h-14.07ZM333.86,119.39h-9.76l-19.67,49.88h10.34l4.2-10.97h20.66l4.2,10.97h10.34l-19.67-49.88h-.64Z"/>
  <g>
    <path class="cls-1" d="M386.51,135.49c0,1.38-.35,2.61-1.03,3.71-.69,1.1-1.61,1.95-2.78,2.57s-2.48.93-3.95.93h-8.84v-14.39h8.34c2.42,0,4.4.67,5.95,1.99,1.54,1.33,2.32,3.07,2.32,5.2M360.15,119.39v49.88h9.76v-17.67h7.48l10.19,17.67h11.04l-11.57-19.42c.22-.1.45-.17.67-.28,2.75-1.35,4.93-3.25,6.52-5.7,1.59-2.45,2.39-5.24,2.39-8.38s-.76-5.97-2.28-8.37c-1.52-2.4-3.63-4.29-6.34-5.67-2.7-1.38-5.82-2.07-9.33-2.07h-18.52Z"/>
    <path class="cls-1" d="M428.45,160c-1.59,1.14-3.65,1.69-6.17,1.64-2.37-.05-4.34-.65-5.91-1.82-1.57-1.16-2.66-2.55-3.28-4.16l-9.55,2.85c.34,1.52,1.05,2.97,2.17,4.34,1.12,1.38,2.53,2.63,4.24,3.74,1.7,1.12,3.65,1.98,5.84,2.6,2.18.62,4.54.93,7.05.93,3.85,0,7.13-.62,9.83-1.85,2.71-1.24,4.78-2.96,6.2-5.16,1.43-2.21,2.14-4.79,2.14-7.73,0-3.32-1.19-6.34-3.56-9.05-2.37-2.71-5.7-4.58-9.98-5.63l-6.55-1.64c-1.85-.47-3.31-1.17-4.38-2.07-1.06-.91-1.6-2.14-1.6-3.71,0-2,.68-3.54,2.03-4.63,1.35-1.09,3.22-1.64,5.59-1.64s4.25.57,5.77,1.71c1.52,1.14,2.57,2.52,3.14,4.14l9.47-2.92c-.85-2.33-2.09-4.34-3.7-6.06-1.62-1.71-3.63-3.02-6.02-3.95-2.4-.93-5.19-1.39-8.38-1.39-5.7,0-10.11,1.32-13.22,3.96-3.11,2.64-4.66,6.3-4.66,11.01,0,2.47.52,4.63,1.57,6.49,1.04,1.85,2.49,3.41,4.34,4.66,1.85,1.26,3.99,2.2,6.42,2.82l6.49,1.71c2.18.57,3.9,1.39,5.16,2.46,1.26,1.06,1.88,2.39,1.88,3.95,0,1.81-.79,3.28-2.39,4.42"/>
    <path class="cls-1" d="M458.4,135.64c1.33-2.52,3.17-4.5,5.52-5.95,2.35-1.45,5.03-2.17,8.02-2.17s5.79.72,8.12,2.17c2.33,1.45,4.16,3.43,5.49,5.95,1.33,2.51,1.99,5.41,1.99,8.69s-.65,6.19-1.96,8.73c-1.3,2.55-3.12,4.54-5.45,5.98-2.33,1.45-4.99,2.17-7.98,2.17s-5.82-.72-8.19-2.17c-2.37-1.45-4.23-3.43-5.56-5.95-1.33-2.52-1.99-5.42-1.99-8.69s.67-6.25,1.99-8.76M458.8,166.81c3.87,2.21,8.32,3.31,13.36,3.31s9.38-1.1,13.18-3.31c3.8-2.21,6.78-5.25,8.94-9.12,2.16-3.87,3.24-8.3,3.24-13.28s-1.09-9.49-3.28-13.36c-2.18-3.88-5.2-6.92-9.05-9.12-3.85-2.21-8.26-3.32-13.25-3.32s-9.39,1.1-13.22,3.28-6.83,5.21-9.01,9.08c-2.19,3.87-3.28,8.33-3.28,13.36s1.09,9.49,3.28,13.36c2.18,3.87,5.21,6.91,9.08,9.12"/>
  </g>
  <polygon class="cls-1" points="515.19 135.14 539.99 169.27 549.68 169.27 549.68 119.39 539.99 119.39 539.99 152.88 515.62 119.39 505.43 119.39 505.43 169.27 515.19 169.27 515.19 135.14"/>
  <polygon class="cls-1" points="300.23 233.67 300.23 183.79 290.47 183.79 290.47 203.67 267.38 203.67 267.38 183.72 257.62 183.72 257.62 233.67 267.38 233.67 267.38 212.65 290.47 212.65 290.47 233.67 300.23 233.67"/>
  <path class="cls-1" d="M347.29,217.46c-1.31,2.54-3.13,4.54-5.45,5.98-2.33,1.45-4.99,2.17-7.98,2.17s-5.82-.72-8.19-2.17c-2.37-1.45-4.23-3.43-5.55-5.95-1.33-2.51-2-5.41-2-8.69s.67-6.25,2-8.76c1.33-2.52,3.17-4.5,5.52-5.95,2.35-1.45,5.02-2.17,8.01-2.17s5.79.72,8.13,2.17c2.33,1.45,4.15,3.43,5.48,5.95,1.33,2.52,2,5.42,2,8.69s-.65,6.19-1.96,8.73M359.23,208.8c0-5.04-1.09-9.49-3.28-13.36-2.18-3.87-5.2-6.91-9.05-9.12-3.85-2.21-8.26-3.31-13.25-3.31s-9.39,1.09-13.22,3.27c-3.82,2.19-6.83,5.21-9.01,9.08-2.19,3.88-3.28,8.33-3.28,13.36s1.09,9.49,3.28,13.36c2.18,3.87,5.21,6.91,9.08,9.12,3.87,2.21,8.32,3.32,13.36,3.32s9.38-1.11,13.18-3.32c3.8-2.2,6.78-5.24,8.94-9.12s3.24-8.3,3.24-13.29"/>
  <polygon class="cls-1" points="376.9 183.79 367.14 183.79 367.14 233.67 398.84 233.67 398.84 224.76 376.9 224.76 376.9 183.79"/>
  <polygon class="cls-1" points="430.55 205.31 416.01 183.79 405.4 183.79 405.4 233.67 415.16 233.67 415.16 199.11 430.55 221.7 445.94 199.04 445.94 233.67 455.63 233.67 455.63 183.79 445.08 183.79 430.55 205.31"/>
  <polygon class="cls-1" points="498.02 192.7 498.02 183.79 466.46 183.79 466.46 233.67 498.31 233.67 498.31 224.76 476.22 224.76 476.22 212.72 495.03 212.72 495.03 204.03 476.22 204.03 476.22 192.7 498.02 192.7"/>
  <path class="cls-1" d="M530.76,224.41c-1.59,1.14-3.65,1.69-6.16,1.64-2.38-.05-4.35-.65-5.92-1.82-1.57-1.17-2.66-2.56-3.28-4.17l-9.55,2.85c.34,1.52,1.06,2.97,2.17,4.34,1.12,1.38,2.53,2.63,4.24,3.74,1.71,1.12,3.65,1.98,5.84,2.6,2.18.62,4.54.93,7.06.93,3.84,0,7.12-.62,9.83-1.85,2.71-1.24,4.78-2.96,6.2-5.16,1.43-2.21,2.14-4.79,2.14-7.73,0-3.32-1.19-6.34-3.56-9.05-2.37-2.71-5.7-4.58-9.98-5.63l-6.55-1.64c-1.85-.47-3.31-1.17-4.38-2.07-1.06-.91-1.6-2.14-1.6-3.71,0-2,.68-3.54,2.03-4.63,1.35-1.09,3.22-1.64,5.59-1.64s4.25.57,5.77,1.71c1.52,1.14,2.57,2.52,3.14,4.14l9.47-2.92c-.85-2.33-2.09-4.34-3.7-6.06-1.62-1.71-3.63-3.02-6.02-3.95-2.4-.93-5.19-1.39-8.37-1.39-5.7,0-10.11,1.32-13.22,3.96s-4.66,6.3-4.66,11.01c0,2.47.52,4.63,1.57,6.49s2.5,3.41,4.34,4.66c1.86,1.26,3.99,2.2,6.42,2.82l6.49,1.71c2.18.57,3.9,1.39,5.16,2.46,1.26,1.06,1.88,2.39,1.88,3.95,0,1.81-.79,3.28-2.39,4.42"/>
  <polygon class="cls-1" points="257.62 298.07 267.38 298.07 267.38 277.97 285.91 277.97 285.91 269.07 267.38 269.07 267.38 257.1 289.61 257.1 289.61 248.19 257.62 248.19 257.62 298.07"/>
  <g>
    <path class="cls-1" d="M333.33,281.86c-1.31,2.54-3.13,4.54-5.45,5.98-2.33,1.45-4.99,2.17-7.98,2.17s-5.82-.72-8.19-2.17c-2.37-1.45-4.23-3.43-5.55-5.95-1.33-2.51-2-5.41-2-8.69s.67-6.25,2-8.76c1.33-2.52,3.17-4.5,5.52-5.95,2.35-1.45,5.02-2.17,8.01-2.17s5.79.72,8.13,2.17c2.33,1.45,4.15,3.43,5.48,5.95s2,5.42,2,8.69-.65,6.19-1.96,8.73M332.93,250.72c-3.85-2.21-8.26-3.31-13.25-3.31s-9.39,1.09-13.22,3.27c-3.82,2.19-6.83,5.21-9.01,9.08-2.18,3.88-3.27,8.33-3.27,13.36s1.09,9.49,3.27,13.36c2.18,3.87,5.21,6.91,9.08,9.12,3.87,2.21,8.32,3.32,13.36,3.32s9.38-1.11,13.18-3.32c3.8-2.2,6.78-5.24,8.94-9.12,2.16-3.87,3.24-8.3,3.24-13.29s-1.09-9.49-3.27-13.36c-2.19-3.87-5.2-6.91-9.05-9.12"/>
    <path class="cls-1" d="M383.45,279.47c0,2.14-.44,4-1.32,5.6-.88,1.59-2.11,2.81-3.7,3.67-1.59.85-3.46,1.28-5.6,1.28s-4-.43-5.59-1.28c-1.59-.86-2.83-2.08-3.71-3.67-.88-1.59-1.32-3.46-1.32-5.6v-31.28h-9.76v31.28c0,3.99.82,7.44,2.46,10.37,1.63,2.92,3.98,5.19,7.02,6.8,3.04,1.61,6.62,2.42,10.76,2.42s7.81-.81,10.87-2.42c3.07-1.61,5.44-3.88,7.12-6.8,1.69-2.92,2.53-6.38,2.53-10.37v-31.28h-9.76v31.28Z"/>
  </g>
  <polygon class="cls-1" points="437.89 281.68 413.52 248.19 403.33 248.19 403.33 298.07 413.09 298.07 413.09 263.94 437.89 298.07 447.58 298.07 447.58 248.19 437.89 248.19 437.89 281.68"/>
  <path class="cls-1" d="M489.19,279.36c-.81,1.92-1.94,3.6-3.39,5.03-1.45,1.42-3.15,2.54-5.1,3.35-1.95.8-4.06,1.21-6.34,1.21h-6.2v-31.63h6.2c2.28,0,4.39.4,6.34,1.21,1.95.81,3.65,1.92,5.1,3.35,1.45,1.43,2.58,3.1,3.39,5.03.8,1.92,1.21,4,1.21,6.23s-.4,4.31-1.21,6.24M487.87,251.4c-3.92-2.14-8.42-3.21-13.5-3.21h-15.96v49.88h15.96c5.09,0,9.58-1.07,13.5-3.21,3.92-2.14,6.98-5.09,9.19-8.84,2.21-3.75,3.31-8.05,3.31-12.9s-1.1-9.2-3.31-12.93c-2.21-3.73-5.27-6.66-9.19-8.8"/>
  <path class="cls-1" d="M521.27,278.47l7.03-18.37,7.03,18.37h-14.07ZM532.87,248.19h-9.76l-19.67,49.88h10.33l4.21-10.97h20.66l4.2,10.97h10.34l-19.67-49.88h-.64Z"/>
  <polygon class="cls-1" points="551.32 257.1 566.28 257.1 566.28 298.07 576.04 298.07 576.04 257.1 590.94 257.1 590.94 248.19 551.32 248.19 551.32 257.1"/>
  <rect class="cls-1" x="597.35" y="248.19" width="9.76" height="49.88"/>
  <path class="cls-1" d="M654.17,281.86c-1.31,2.54-3.13,4.54-5.45,5.98-2.33,1.45-4.99,2.17-7.98,2.17s-5.82-.72-8.19-2.17c-2.38-1.45-4.23-3.43-5.56-5.95-1.33-2.51-2-5.41-2-8.69s.67-6.25,2-8.76c1.33-2.52,3.17-4.5,5.52-5.95,2.35-1.45,5.02-2.17,8.01-2.17s5.8.72,8.13,2.17c2.33,1.45,4.15,3.43,5.48,5.95s2,5.42,2,8.69-.65,6.19-1.96,8.73M653.78,250.72c-3.84-2.21-8.26-3.31-13.25-3.31s-9.39,1.09-13.22,3.27c-3.82,2.19-6.83,5.21-9.01,9.08-2.18,3.88-3.27,8.33-3.27,13.36s1.09,9.49,3.27,13.36c2.18,3.87,5.21,6.91,9.08,9.12,3.87,2.21,8.32,3.32,13.36,3.32s9.38-1.11,13.18-3.32c3.8-2.2,6.78-5.24,8.94-9.12,2.16-3.87,3.24-8.3,3.24-13.29s-1.09-9.49-3.27-13.36c-2.19-3.87-5.2-6.91-9.05-9.12"/>
  <polygon class="cls-1" points="708.57 248.19 708.57 281.68 684.2 248.19 674.01 248.19 674.01 298.07 683.77 298.07 683.77 263.94 708.57 298.07 718.26 298.07 718.26 248.19 708.57 248.19"/>
  <g>
    <path class="cls-1" d="M142.48,129.05v-.04c-.19-.89-1.08-1.46-1.98-1.27l-1.11.02c-4.16.03-8.25,1.05-11.91,3-2.14,1.14-4.16,2.42-5.48,3.47l-12.8,10.13c-.32.26-.79-.03-.71-.43l1.67-9.14c3.65-11.96,9.6-23.1,17.5-32.8l9.16-11.25c1.34-1.62-.43-3.95-2.36-3.11l-5.35,2.32c-1.57.7-6.52,5.14-7.53,6.53l-9.03,12.35-3.3,4.52c-.58.8-1.83.39-1.83-.59v-39.77c0-2.78-.65-5.54-1.89-8.03l-.79-1.58c-.61-1.23-2.35-1.26-3.01-.06l-.39.71c-1.43,2.55-2.18,5.43-2.18,8.36v14.54l-1.17,24.18c-.05.88-1.16,1.25-1.7.56l-6.24-7.75c-.21-.24-.4-.52-.57-.8-1.93-3.15-4.55-5.79-7.66-7.77l-10.61-6.75c-.89-.59-2.03.28-1.72,1.31l.22.72c.53,1.8,1.43,3.48,2.62,4.96l16.51,20.46c4.71,6.17,6.24,15.05,7.41,22.73l1.19,7.59c.04.34-.38.53-.61.29l-4.36-4.97c-4.64-5.3-10.47-9.39-17.01-11.96l-2.88-1.13c-3.35-1.3-7.08-1.26-10.39.14-.53.23-.8.72-.8,1.22s.25.96.75,1.19l7.15,3.42c6.04,2.89,11.28,7.24,15.23,12.64l4.31,5.89c2.69,3.68,4.09,8.13,4.02,12.67l.26,25.54v.15l.08,7.2c-.06,8.03-.69,13.56-1.32,17.11l20.9-21.45.12-19.18c-.1-4.25.04-8.5.43-12.74l.34-3.78c1.32-4.75,3.89-9.08,7.42-12.52,4.69-4.57,9.94-8.52,15.62-11.78,1.75-.99,3.39-1.93,4.55-2.58.94-.54,1.44-1.63,1.21-2.72M155.33,314.29l-5.3-.57c-2.88-.31-5.71-.91-8.46-1.8l-2.31-.75c-2.05-.68-3.95-1.71-5.61-3.08l-1.5-1.25c-2.5-2.45-4.53-5.32-6.02-8.5l-3.35-7.19c-.15-.34.21-.66.53-.48l19.21,11.18c1.48.84,2.84,1.85,4.09,2.99l9.18,8.38c.44.4.12,1.11-.46,1.06M108.72,310.83l-.99,4.62c-.02.14-.23.15-.3.03l-3.17-7.97c-1.17-2.89-1.67-6-1.5-9.11l.69-12.39h.05l4.61,10.85c.47,1.1.8,2.24.97,3.42.51,3.51.39,7.07-.36,10.53M85.31,292.56l-4.09,8.66c-.94,2.02-2.32,3.81-4,5.29-.45.39-.92.81-1.41,1.26-4.81,4.33-11.04,6.71-17.5,6.71h-7.66c-.1,0-.15-.12-.06-.18.75-.53,2.67-2.14,4.66-3.86,4.17-3.56,8.69-6.7,13.5-9.34,6-3.29,13.78-7.58,16.18-8.9.23-.13.5.12.39.36M190.42,307.19l-3.55-2.66c-6.06-4.53-11.85-7.32-19.31-8.54l-14.83-1.83c-5.77-.71-11.3-2.8-16.1-6.08l-2.96-2.02c-6.32-4.3-11.13-10.48-13.77-17.67l-2.06-5.61c-1.08-2.94-2.63-7.57-3.74-12.33-.04-.14-.08-.31-.13-.51-.03-.11-.07-.22-.09-.35-.08-.37-.18-.81-.3-1.32-.11-.49-.21-1.05-.32-1.67-.05-.27-.11-.57-.15-.88-.04-.26-.08-.52-.13-.8-.05-.39-.12-.79-.17-1.22-.04-.24-.08-.49-.11-.75v-.06c-.44-3.43-.81-8.02-.89-13.89l-19.12,19.9c-.95,6.5-2.63,12.9-5.01,19.05l-.06.17-.89,2.31c-.22.56-.48,1.11-.78,1.63-7.01,12.01-12.6,16.11-25.9,21.18l-13.6,1.99c-9.13,1.35-17.91,4.5-25.83,9.29l-3.37,2.06c-.4.15-.24.76.18.72l32.87-3.14c.52-.05.82.6.43.96l-8.13,7.44c-4.12,3.78-8.91,6.75-14.13,8.75l-11.72,4.51c-.46.18-.37.85.12.91l8.45,1.11c2.5.34,5.02.32,7.5-.03,1.98-.27,3.88-.98,5.6-2.01l4.38-2.6c1.96-1.18,4.16-1.92,6.43-2.17l15.65-1.78c.44-.05.71.47.42.8l-12.12,9.83c-2.03,1.65-3.64,3.8-4.63,6.23l-1.49,3.63,29.55-20.15c.75-.52,1.75.09,1.63,1l-1.23,12.67c-.47,4.74.17,9.52,1.86,13.97l2.41,6.33c.26.68,1.24.5,1.26-.23l.07-16.35c.04-5.97,1.6-14,4.29-19.34l4.82-9.38c.28-.69,1.21-.75,1.6-.14l2.66,5.81c1.35,2.96,3.03,5.74,5.03,8.31l.69.89c.57.73.61,1.75.07,2.51l-2.28,3.33c-1.81,2.69-2.67,5.93-2.37,9.18l1.55,10.87c.18,1.24,1.97,1.26,2.16,0l.92-8.94c.26-2.52,1.35-4.91,3.08-6.75l3.25-3.47c.7-.75,1.87-.8,2.61-.09l3.72,3.47c3.14,2.94,5.68,6.47,7.42,10.4l2.32,7.41c.37,1.18,2.11.93,2.12-.31l.1-7.63c.05-4.23-1.55-8.31-4.47-11.35l-6.28-6.55c-.74-.78-.81-1.98-.18-2.85l.49-.7c1.97-2.71,2.85-6.06,2.48-9.39l-.13-1.24c-.05-.39.39-.65.7-.42l21.7,18.48c2.22,1.88,4.55,3.59,7.01,5.12l10.86,6.74c.71.43,1.46-.45.92-1.08l-18.19-19.62c-.34-.36-.04-.95.45-.92l13.81,1.06c3.18.23,6.33.76,9.41,1.53l4.07,2.37c3.91,2.28,8.36,3.47,12.9,3.47h5.49c.18,0,.26-.24.08-.34l-12.46-6.3c-2.63-1.34-5-3.11-7.02-5.25l-10.82-11.41c-.35-.35-.05-.94.44-.88l32.68,3.89c.15.01.23-.19.12-.29"/>
    <path class="cls-1" d="M21.59,220.78H4.89c0-22.35,20.74-40.5,46.22-40.5,15.56,0,27.75,6.39,38.21,15.04.1,10.38-.7,16.92-1.4,20.57-12.23-12.61-22.94-20.32-36.81-20.32-16.26,0-29.5,11.31-29.51,25.22"/>
    <path class="cls-1" d="M92.5,220.73l23.43-24.04v-.02c10.86-9.31,23.5-16.4,39.87-16.4,6.14,0,12.09,1.04,17.59,3.04,5.51,1.98,10.57,4.91,14.94,8.7,8.83,7.67,13.69,17.89,13.71,28.76v.04c-.02,10.87-4.87,21.1-13.71,28.75-4.37,3.8-9.43,6.72-14.94,8.71-5.51,2-11.45,3.04-17.59,3.04-15.8,0-28.14-6.6-38.72-15.46-.69-3.89-1.49-10.65-1.4-20.88,0-.87.01-1.78.03-2.7,0,0,1.09,1.17,1.27,1.35,5.13,5.44,11.26,11.49,17.94,15.82,6.88,4.43,13.72,6.58,20.88,6.58,16.27,0,29.5-11.3,29.52-25.21v-.04c-.01-13.9-13.25-25.21-29.52-25.21-7.16,0-14,2.15-20.88,6.58-6.92,4.47-23.12,21.26-23.12,21.26l-19.48,20.27c-11.14,9.93-24.15,17.64-41.22,17.64-25.48,0-46.22-18.18-46.22-40.51h16.71c.01,13.91,13.25,25.22,29.51,25.22,14.82,0,26.02-8.79,39.33-22.95"/>
    <path class="cls-1" d="M177.78,119.16c-.35-2.32-7.36-7.61-14.89-6.5-7.53,1.11-12.77,7.85-12.39,10.51.44,3.01,7.36,7.6,14.89,6.5,7.53-1.11,12.75-8.02,12.39-10.51"/>
    <path class="cls-1" d="M142.31,62.31c-6.78,5.11-8.67,14.06-7.02,16.25,1.86,2.47,10.77,2.84,17.55-2.26,6.79-5.12,8.57-14.21,7.02-16.25-1.43-1.91-10.77-2.85-17.55,2.26"/>
    <path class="cls-1" d="M156.43,85.42c-7.33,2.88-11.23,10.39-10.31,12.75,1.04,2.67,8.9,5.22,16.23,2.36,7.33-2.88,11.18-10.54,10.31-12.75-.81-2.06-8.9-5.22-16.23-2.35"/>
    <path class="cls-1" d="M153.06,137.48c-7.26-2.26-14.91,1.54-15.71,4.12-.9,2.91,3.34,10.05,10.61,12.3,7.26,2.26,14.96-1.71,15.7-4.11.7-2.24-3.33-10.04-10.61-12.31"/>
    <path class="cls-1" d="M103.46,28.17c-2.31,0-7.9,5.93-7.9,13.25s5.11,13.26,7.9,13.26c2.47,0,7.9-5.94,7.9-13.26s-5.74-13.25-7.9-13.25"/>
    <path class="cls-1" d="M135.3,37.92c-2.24-1.5-12.54.97-17.88,8.94-5.34,7.97-4.01,18.21-1.45,19.94,2.9,1.94,12.53-.96,17.87-8.94,5.34-7.97,3.86-18.32,1.45-19.94"/>
    <path class="cls-1" d="M71.62,38.22c-2.41,1.61-3.89,11.95,1.45,19.93,5.34,7.97,14.97,10.88,17.88,8.94,2.57-1.72,3.88-11.96-1.46-19.93-5.34-7.97-15.63-10.44-17.87-8.94"/>
    <path class="cls-1" d="M64.61,62.59c-6.79-5.12-16.12-4.17-17.56-2.26-1.53,2.05.24,11.13,7.02,16.25,6.79,5.11,15.69,4.73,17.56,2.26,1.65-2.19-.24-11.13-7.02-16.25"/>
    <path class="cls-1" d="M34.26,88.07c-.87,2.22,2.98,9.88,10.31,12.75,7.33,2.87,15.18.31,16.22-2.35.93-2.36-2.98-9.87-10.31-12.74-7.33-2.88-15.42.29-16.23,2.35"/>
    <path class="cls-1" d="M29.14,119.45c-.36,2.49,4.85,9.4,12.38,10.51,7.53,1.11,14.45-3.49,14.89-6.5.39-2.66-4.85-9.4-12.38-10.51-7.52-1.11-14.55,4.17-14.89,6.5"/>
    <path class="cls-1" d="M53.85,137.78c-7.26,2.26-11.3,10.05-10.6,12.29.75,2.41,8.44,6.38,15.71,4.12,7.27-2.26,11.51-9.4,10.61-12.29-.8-2.57-8.44-6.38-15.71-4.12"/>
    <path class="cls-1" d="M81.38,76.49c-.95.75-.61,5.86,2.62,9.93,3.23,4.07,7.94,5.7,9.08,4.79,1.01-.8.61-5.86-2.62-9.93-3.23-4.06-8.21-5.5-9.08-4.79"/>
    <path class="cls-1" d="M131.81,110.48c-4.64,2.86-6.36,8.48-5.51,9.87.78,1.25,6.65,2.36,11.29-.51,4.64-2.86,7.1-7.27,5.51-9.86-1.6-2.59-6.65-2.37-11.29.5"/>
    <path class="cls-1" d="M111.81,90.93c1.14.91,5.85-.73,9.08-4.8,3.23-4.06,3.57-9.18,2.62-9.93-.87-.69-5.85.73-9.08,4.8-3.23,4.06-3.63,9.13-2.62,9.93"/>
    <path class="cls-1" d="M63.82,110.28c-1.6,2.59.87,7.01,5.5,9.87,4.65,2.86,10.52,1.75,11.3.5.85-1.39-.88-7.01-5.51-9.87-4.64-2.86-9.7-3.08-11.29-.5"/>
    <path class="cls-1" d="M205.07,93.4c-1.78-9.64-4.53-19.15-8.52-28.18-7.77-18.11-20.3-34.38-36.45-46.27-1.99-1.52-4.12-2.86-6.21-4.24-1.07-.66-2.16-1.28-3.24-1.92l-1.63-.95-1.68-.87c-4.43-2.39-9.11-4.33-13.89-5.97l-3.61-1.17-3.67-.97c-1.22-.35-2.47-.59-3.71-.85-1.24-.23-2.47-.55-3.73-.71-5-.86-10.07-1.2-15.13-1.29-5.06.09-10.13.42-15.13,1.27-1.26.15-2.49.48-3.73.71-1.24.26-2.49.49-3.7.84l-3.67.97-3.61,1.17c-4.78,1.64-9.46,3.58-13.9,5.97l-1.68.87c-.55.3-1.09.63-1.63.94-1.08.64-2.17,1.27-3.24,1.92-2.09,1.38-4.22,2.72-6.21,4.24-16.17,11.87-28.7,28.14-36.48,46.24-3.99,9.02-6.75,18.53-8.54,28.17C.31,102.98-.26,112.81.11,122.57c.45,9.77,2.01,19.48,4.63,28.91,2.39,8.62,5.72,16.98,9.96,24.87,4-2.7,8.37-4.97,13.04-6.73-7.31-14.77-11.3-31.15-11.67-47.63-.18-8.61.42-17.24,2.09-25.65,1.69-8.4,4.19-16.64,7.76-24.39,1.71-3.91,3.78-7.64,5.94-11.29,2.23-3.62,4.62-7.12,7.24-10.45,2.66-3.28,5.42-6.49,8.48-9.37l1.13-1.1,1.18-1.05c.79-.69,1.55-1.42,2.36-2.08,1.63-1.31,3.24-2.66,4.96-3.86,1.66-1.27,3.45-2.35,5.19-3.51l2.7-1.58c.45-.26.89-.53,1.35-.78l1.39-.71c3.67-1.96,7.52-3.52,11.44-4.85l2.95-.94,3-.78c1-.29,2.01-.46,3.02-.67,1.01-.18,2.01-.46,3.04-.57,4.07-.68,8.2-.92,12.33-.98,4.13.06,8.25.31,12.32.99,1.03.12,2.03.39,3.04.57,1.01.2,2.03.39,3.02.68l3,.78,2.95.95c3.91,1.33,7.77,2.9,11.43,4.86l1.39.71,1.35.78c.89.53,1.81,1.03,2.69,1.58,1.74,1.16,3.52,2.24,5.19,3.51,1.72,1.19,3.32,2.55,4.96,3.86.8.67,1.57,1.39,2.36,2.08l1.18,1.05,1.13,1.1c3.06,2.89,5.82,6.1,8.48,9.38,2.63,3.32,5,6.83,7.23,10.45,2.15,3.66,4.23,7.38,5.93,11.29,3.57,7.75,6.06,15.99,7.75,24.39,1.66,8.42,2.26,17.05,2.07,25.65-.38,16.48-4.38,32.86-11.69,47.61,4.64,1.75,9,4.01,13.03,6.75,4.23-7.89,7.58-16.25,9.97-24.86,2.62-9.42,4.2-19.14,4.64-28.91.38-9.76-.19-19.58-1.94-29.24"/>
  </g>
</svg>